# xmcd
#
# Track frame offsets: 
#        182
#        19910
#        36239
#        52874
#        67455
#        94839
#        107883
#        127533
#        143227
#        171295
#        195889
#        211223
#        227060
#
# Disc length: 3234 seconds
#
# Revision: 0
# Processed by: cddbd v1.5.2PL0 Copyright (c) Steve Scherf et al.
# Submitted via: ExactAudioCopy v1.3
#
DISCID=b10ca00d
DTITLE=Dirty Hands - XXX Hot Chili !!!
DYEAR=1993
DGENRE=Blues
TTITLE0=Judgement Day
TTITLE1=I Don't Care
TTITLE2=Down In New Orleans
TTITLE3=Drunk Woman
TTITLE4=Find Some Blues
TTITLE5=Ridin' With George
TTITLE6=My Queenie
TTITLE7=Stop On By
TTITLE8=4th Tequilla
TTITLE9=Stir Up Trouble
TTITLE10=My Baby She's Got It
TTITLE11=Which Way For Bogalusa ?
TTITLE12=XXX Hot Chili !!!
EXTD=
EXTT0=
EXTT1=
EXTT2=
EXTT3=
EXTT4=
EXTT5=
EXTT6=
EXTT7=
EXTT8=
EXTT9=
EXTT10=
EXTT11=
EXTT12=
PLAYORDER=
